<?xml version="1.0" standalone="no"?><!DOCTYPE svg PUBLIC "-//W3C//DTD SVG 1.1//EN" "http://www.w3.org/Graphics/SVG/1.1/DTD/svg11.dtd"><svg t="1747135803876" class="icon" viewBox="0 0 1024 1024" version="1.1" xmlns="http://www.w3.org/2000/svg" p-id="21423" xmlns:xlink="http://www.w3.org/1999/xlink" width="512" height="512"><path d="M0 0m256 0l512 0q256 0 256 256l0 512q0 256-256 256l-512 0q-256 0-256-256l0-512q0-256 256-256Z" fill="#FFFFFF" p-id="21424"></path><path d="M514.8416 153.6C401.9328 153.6 265.728 180.1472 153.6 238.592c0 126.2336-1.536 440.6912 361.2416 655.552C877.6448 679.2832 876.096 364.8256 876.096 238.592c-112.128-58.4448-248.32-84.992-361.2544-84.992z" fill="#68BC71" p-id="21425"></path><path d="M514.4704 893.9264C152.064 679.0656 153.6 364.7744 153.6 238.592c112-58.368 248.0384-84.928 360.8704-84.992v740.3264z" fill="#67B279" p-id="21426"></path><path d="M501.6704 647.7184L720.1152 353.28c-16-12.8256-30.0416-3.776-37.7728 3.2384l-0.2816 0.0256-182.144 189.4784-68.6336-82.5984c-32.7296-37.824-77.248-8.96-87.6416-1.344l158.0288 185.6256" fill="#FFFFFF" p-id="21427"></path></svg>