<?xml version="1.0" standalone="no"?><!DOCTYPE svg PUBLIC "-//W3C//DTD SVG 1.1//EN" "http://www.w3.org/Graphics/SVG/1.1/DTD/svg11.dtd"><svg t="1747136604070" class="icon" viewBox="0 0 1024 1024" version="1.1" xmlns="http://www.w3.org/2000/svg" p-id="62507" xmlns:xlink="http://www.w3.org/1999/xlink" width="512" height="512"><path d="M914.574222 682.666667c0-28.444444 43.320889-176.696889 86.670222-220.017778 43.292444-43.320889 0-90.055111-43.320888-90.055111-96.853333 0-259.953778 196.295111-259.953778 310.072889 0 142.222222 163.072 296.504889 259.953778 296.504889 43.320889 0 86.641778-39.936 43.320888-83.285334C957.923556 852.593778 914.574222 739.555556 914.574222 682.666667z" fill="#3B88C3" p-id="62508"></path><path d="M256.597333 409.144889c0-86.641778 42.581333-173.312 85.902223-173.312 129.962667 0 378.936889 137.187556 422.257777 353.820444 43.349333 216.632889-508.16-180.508444-508.16-180.508444z m138.069334 519.907555c43.320889 43.320889 129.991111 86.670222 216.661333 86.670223 86.641778 0-88.490667-119.153778-43.320889-173.283556 62.008889-74.439111-173.340444 86.613333-173.340444 86.613333z" fill="#3B88C3" p-id="62509"></path><path d="M58.908444 817.123556c21.646222-64.995556 5.404444-111.928889-32.512-158.833778-37.916444-46.961778 110.136889-54.158222 158.862223 10.837333s162.503111 178.659556 61.383111 176.924445c-101.063111-1.848889-187.733333-28.928-187.733334-28.928z" fill="#000000" p-id="62510"></path><path d="M4.778667 668.103111c27.278222 24.860444 205.454222 122.567111 203.804444 146.119111-1.649778 23.552-64.824889-2.503111-88.32-7.936-42.24-9.728-54.186667-17.009778-65.905778-14.961778-23.893333 9.130667-15.758222 34.161778-6.883555 48.469334 42.609778 74.24 207.246222 132.608 345.884444 132.608 239.274667 0 477.923556-216.604444 477.923556-303.274667 0-86.641778-265.813333-303.303111-505.088-303.303111C127.516444 365.795556 5.12 538.225778 4.778667 668.103111z" fill="#55ACEE" p-id="62511"></path><path d="M199.111111 483.555556a56.888889 56.888889 0 1 1 0.028445 113.749333A56.888889 56.888889 0 0 1 199.111111 483.555556z" fill="#000000" p-id="62512"></path><path d="M428.942222 852.764444a28.359111 28.359111 0 0 1-25.173333-41.614222c45.084444-86.300444 63.089778-164.067556 4.380444-262.912a28.444444 28.444444 0 0 1 48.924445-29.070222c76.600889 128.995556 41.528889 233.301333-2.901334 318.321778a28.416 28.416 0 0 1-25.230222 15.274666z" fill="#226699" p-id="62513"></path></svg>