<?xml version="1.0" standalone="no"?><!DOCTYPE svg PUBLIC "-//W3C//DTD SVG 1.1//EN" "http://www.w3.org/Graphics/SVG/1.1/DTD/svg11.dtd"><svg t="1747136618330" class="icon" viewBox="0 0 1024 1024" version="1.1" xmlns="http://www.w3.org/2000/svg" p-id="63789" xmlns:xlink="http://www.w3.org/1999/xlink" width="512" height="512"><path d="M1024 597.333333c0 142.222222-85.333333 256-312.888889 312.888889-200.874667 50.232889-597.333333-26.567111-597.333333-56.888889 0-32.113778 71.196444-38.997333 193.763555-32 311.125333 17.777778 391.111111-109.710222 341.333334-149.333333-87.096889-69.319111-183.096889 10.666667-343.096889-3.555556C107.576889 650.837333 0 496.981333 0 455.111111c0-56.888889 333.255111-227.555556 568.888889-227.555555s455.111111 120.888889 455.111111 369.777777z" fill="#66757F" p-id="63790"></path><path d="M426.666667 355.555556a42.666667 42.666667 0 1 1-85.333334 0c0-23.580444 19.086222-14.222222 42.666667-14.222223s42.666667-9.358222 42.666667 14.222223z" fill="#292F33" p-id="63791"></path><path d="M398.222222 256c56.888889-142.222222 150.499556-256 226.360889-256S597.333333 56.888889 739.555556 284.444444 398.222222 256 398.222222 256zM85.333333 853.333333c0-113.777778-29.582222-170.666667 4.152889-170.666666s170.979556 114.659556 170.979556 177.493333c0 62.833778-137.272889 163.84-170.979556 163.84C55.751111 1024 85.333333 967.111111 85.333333 853.333333z" fill="#66757F" p-id="63792"></path><path d="M765.752889 640l227.441778 213.333333s-92.216889 52.138667-227.441778-213.333333z" fill="#292F33" p-id="63793"></path><path d="M765.752889 640l157.496889-109.027556S1033.472 813.056 993.194667 853.333333c-73.472-28.444444-227.441778-213.333333-227.441778-213.333333z" fill="#66757F" p-id="63794"></path><path d="M256 577.621333c0 14.023111-14.449778 76.032-28.444444 76.032s-28.444444-62.008889-28.444445-76.032v-50.602666c0-14.023111 14.449778 25.287111 28.444445 25.287111s28.444444-39.310222 28.444444-25.287111v50.602666z m85.333333 0c0 14.023111-14.449778 76.032-28.444444 76.032s-28.444444-62.008889-28.444445-76.032v-50.602666c0-14.023111 14.449778 25.287111 28.444445 25.287111s28.444444-39.310222 28.444444-25.287111v50.602666z m85.333334-28.444444c0 14.023111-14.449778 76.032-28.444445 76.032s-28.444444-62.008889-28.444444-76.032v-50.602667c0-14.023111 14.449778 25.287111 28.444444 25.287111s28.444444-39.310222 28.444445-25.287111v50.602667z m85.333333 0c0 14.023111-14.449778 76.032-28.444444 76.032s-28.444444-62.008889-28.444445-76.032v-50.602667c0-14.023111 14.449778 25.287111 28.444445 25.287111s28.444444-39.310222 28.444444-25.287111v50.602667z" fill="#FFFFFF" p-id="63795"></path><path d="M170.666667 568.888889l199.111111-28.444445h170.666666v-56.888888H170.666667v85.333333z" fill="#66757F" p-id="63796"></path><path d="M523.861333 545.194667c-113.777778-59.249778-380.728889-0.312889-424.305777 43.036444 13.340444 10.24 28.103111 20.110222 44.003555 29.240889 173.767111-93.326222 400.554667-61.696 380.302222-72.277333z" fill="#292F33" p-id="63797"></path></svg>