<?xml version="1.0" standalone="no"?><!DOCTYPE svg PUBLIC "-//W3C//DTD SVG 1.1//EN" "http://www.w3.org/Graphics/SVG/1.1/DTD/svg11.dtd"><svg t="1747915700951" class="icon" viewBox="0 0 1024 1024" version="1.1" xmlns="http://www.w3.org/2000/svg" p-id="16243" xmlns:xlink="http://www.w3.org/1999/xlink" width="512" height="512"><path d="M512 0c282.7648 0 512 229.2352 512 512S794.7648 1024 512 1024 0 794.7648 0 512 229.2352 0 512 0z m230.4768 576h-460.8l-2.2144 0.064c-33.4976 1.7536-48.9984 43.4816-23.7312 66.6368l125.6704 115.2 1.8432 1.5872a38.4 38.4 0 0 0 52.416-3.9424l1.5872-1.8432a38.4 38.4 0 0 0-3.9552-52.4032L380.416 652.8h362.0736l2.2528-0.064A38.4 38.4 0 0 0 742.4768 576z" fill="#6B57FE" p-id="16244"></path><path d="M588.416 281.2544a38.4 38.4 0 0 1 52.416-3.9424l1.8432 1.5872 125.6704 115.2c25.2672 23.1552 9.7664 64.8832-23.7312 66.6368L742.4 460.8H281.6a38.4 38.4 0 0 1-2.2528-76.736L281.6 384h362.0736l-52.8896-48.4992a38.4 38.4 0 0 1-3.9424-52.4032l1.5744-1.8432z" fill="#FFBA00" p-id="16245"></path></svg>