<?xml version="1.0" standalone="no"?><!DOCTYPE svg PUBLIC "-//W3C//DTD SVG 1.1//EN" "http://www.w3.org/Graphics/SVG/1.1/DTD/svg11.dtd"><svg t="1747915732637" class="icon" viewBox="0 0 1024 1024" version="1.1" xmlns="http://www.w3.org/2000/svg" p-id="20784" xmlns:xlink="http://www.w3.org/1999/xlink" width="512" height="512"><path d="M516.48 415.68c0-1.28-0.32-1.92-0.32-2.56 0 0.96 0.32 1.92 0.32 2.56z m188.16 205.76z m4.8 0.64c-1.28-0.32-3.84 0-4.8-0.64-0.64 2.24 0.32 2.88 4.8 0.64zM526.08 8.96C255.36 8.96 35.84 228.48 35.84 499.2s219.52 490.24 490.24 490.24 490.24-219.52 490.24-490.24C1016.32 228.16 796.8 8.96 526.08 8.96z m313.28 191.36c-16.96 0.64-28.8 0.64-42.24 9.92-5.44 3.84-9.28 8.64-16 10.88-6.08 1.6-12.8 0.32-19.2 2.24-22.4 7.68-18.88 55.36-48 48-13.76-3.52-23.36-19.52-30.4-30.4-6.08-9.28-17.28-16.96-9.6-28.8-3.52 0.96-7.04 0-10.56 0.64 4.8-10.24 20.48-9.28 23.04-14.72 6.4-13.12-17.92-14.72-24.96-16.32 8.32-8.96 12.48 2.88 20.8 0.96 8-1.92-4.16-12.48-8.96-13.44-1.6-0.32-29.76 7.68-13.44-6.72-19.84-12.8-40-25.6-59.84-38.08-3.52 14.08 26.56 22.08 36.48 27.2-1.6 5.76-10.56 14.4-17.6 11.84-6.72-2.24-3.84-13.12-13.76-12.16-7.04 16.32 15.04 11.52 16.96 21.76 2.24 11.52-8.32 6.72-12.48 6.4-0.96 0-8.64-8-8.96-1.92-0.64 7.04 12.16 4.48 13.12 11.52-14.72 0.64-22.4-4.8-34.24-12.8-14.08-9.28-21.12-8.32-38.4-8.32 5.12-2.24 12.16-3.52 16.64-7.04 2.56-1.92 11.84-10.88 12.48-13.12 2.56-8.96 0-8-8.64-14.08-7.36-5.12-16.64-14.4-25.6-16.32-32.96-6.72-10.24 29.76-35.2 34.88h1.28-1.28 0.32c-6.72-0.64-17.6-1.92-21.12 0.96-2.56 2.24-2.88 10.88-5.76 13.76-5.12 5.44-13.12 6.72-19.2 10.56-6.4 4.48-19.84 14.4-23.36 21.44-13.12 24.96 29.76 32.96 46.08 40.32 7.36 3.2 28.8 8 32.96 13.44 5.44 7.36-4.48 14.4 6.72 19.84 3.52 1.6 10.88 1.92 14.08-1.6 5.12-5.76-1.92-7.04-3.2-13.44-2.24-12.48 1.6-7.68 7.68-12.16 12.8-9.6 9.92-10.24 5.44-25.28-2.24-7.04-10.24-26.56-3.2-32 8.96-6.72 28.8 3.84 36.16 4.48 8.32 0.96 13.12 12.48 17.6 17.28 2.88 3.2 8.32 9.6 13.76 8.96 8.32-1.28 4.8-8.32 9.6-11.84 13.12-8.96 16.32 3.2 21.44 15.36 4.8 11.52 9.6 15.68 18.24 23.04 4.16 3.52 21.76 15.68 19.84 23.04-1.28 5.12-21.12 12.8-26.56 14.4-19.52 6.08-56.64-10.24-60.48 21.12 7.68-2.88 29.44-20.48 35.84-12.16 2.88 3.84-2.24 9.28-0.96 13.12 3.84 11.2 12.48 7.36 21.76 5.44l-1.92 0.96c12.48-6.4 11.2-5.12 16.96-15.68 1.92-3.52 4.8-11.84 7.36-14.08 8.96-8.32 10.56-2.56 16.32 3.84 1.6 1.6 15.36 21.76 10.56 20.8-16.32-3.2-31.68-2.88-45.44 6.08-7.68 5.12-15.04 12.16-24.32 15.36-2.24 0.96-18.56 2.24-16.64-0.32 2.88-4.16 12.48-6.72 16.32-11.2-10.56-4.48-19.52 5.44-27.84 10.88-8.96 4.16-10.88 12.16-18.56 18.88-3.2 2.88-9.6 3.52-12.8 7.36-3.2 3.84-3.52 9.92-6.4 13.44-2.24 2.56-7.36 0.96-9.6 4.8-2.88 5.12 2.56 9.6 1.28 13.44-2.24 6.72-14.72 12.16-19.52 16.96l1.92-1.92c-4.8 5.12-10.88 8.64-14.72 14.72 1.6 8.32 7.04 27.84 5.76 32.32-5.12 15.04-14.72-8-18.56-14.08-13.44-20.48-40.64-6.72-59.2-5.12-23.68 2.24-46.72 32.96-32.32 57.92 7.04 11.84 18.88 16.64 32.32 13.76 12.16-2.56 15.68-19.2 26.88-19.52 20.8-0.64 0.32 20.48-1.28 28.16-1.6 7.04 2.56 7.68 9.92 9.6 5.44 1.28 13.12-2.24 17.92 0.64 2.88 1.92 2.88 12.8 7.04 9.28-8 6.72-6.08 22.4 1.92 28.16 8.96 6.4 19.84 0.32 29.44 2.88 17.92 4.48 9.28-1.28 25.28-10.88 10.56-6.4 12.48 1.28 19.84 1.28 5.12 0 8-7.04 16.32-5.12 6.72 1.6 9.28 7.04 17.6 8 3.2 0.64 6.72-1.28 9.92-0.96 15.04 1.6 26.24 11.2 38.08 19.84 9.6 7.04 16 5.76 27.52 8.96 8.32 2.24 23.68 14.4 22.72 24.96 0 1.92-7.36 11.2-8.64 15.68 2.24 1.6 16.96-1.92 21.12-2.24-1.28 1.6-11.52 8.64-11.52 4.8 0 1.92 7.04 5.76 8.96 7.04 5.12-16.96 13.76-6.08 24.32-1.92 8.64 3.52 19.52 3.84 29.12 6.08 8 1.92 25.6 7.36 31.36 13.76 7.04 7.68 2.24 20.48-3.2 28.48-6.72 10.24-17.28 14.08-21.44 26.24-3.52 9.6-0.96 19.2-2.88 29.76-2.56 14.4-4.8 9.28-14.08 17.92-7.68 7.36 0 6.08-10.56 10.88-10.56 4.8-19.84 3.2-27.2 15.04 0.32-0.64 0.64-1.6 0.64-2.24-3.2 4.48-4.8 13.12-6.08 16-3.84 7.36-8.64 12.16-14.72 18.24-2.24 2.24-22.72 30.4-24 28.16-1.6-2.88-17.92 2.88-18.56-1.28 0.64 3.52 0 2.24 3.84 4.48-3.84 23.04-13.44 26.56-36.16 26.88 1.92 11.2-8.32 8.96-13.12 15.04-2.88 3.52-4.16 13.44-6.08 17.92-1.28 2.88-9.92 14.08-9.92 16.32 0 1.92 2.88 5.12 5.76 8-16 3.2-32.32 5.44-48.96 6.72 3.2-3.84 3.84-7.36-6.08-7.68 2.56-7.04 8.96-11.2 11.52-18.24 1.28-3.2 0.32-4.48 1.28-8 3.52-11.2 1.92-7.04 0-15.68-4.8-20.48 1.6-25.92 7.36-44.8 5.76-19.2 5.12-44.16 8.96-64.96 1.6-9.92 4.48-30.72 1.28-40-3.84-10.56-21.12-18.88-28.8-25.92-11.2-10.24-16.96-21.12-25.28-33.6-4.16-6.4-8.96-12.48-12.16-19.52-7.04-14.72 0-6.08 1.28-14.72 1.28-8.32-0.96-16 2.24-24.64 3.84-9.6 12.8-15.68 16-25.6 2.88-8.64 0.64-19.84-8.32-22.72-5.12-1.6-10.56 2.24-15.68 1.28-7.04-1.28-15.04-6.4-20.48-10.56-7.68-5.76-10.56-15.36-18.88-20.8-6.72-4.48-11.84-1.92-19.2-4.16-7.68-2.24-12.48-11.84-18.56-14.72-9.28-4.48-14.4 1.92-24.32 0.64-8.32-0.96-21.12-10.24-28.8-13.76-15.68-7.04-25.28-14.72-31.68-31.04-5.44-13.76-13.44-20.16-22.72-31.68s-12.48-21.44-26.88-24.64c-2.56 0.96 2.88 13.44 3.2 14.4 5.12 9.6 12.8 18.24 19.2 27.2 9.28 13.12 5.44 15.68-4.16 2.88-10.56-14.4-23.04-29.12-32.32-44.48-3.52-5.76-2.88-9.6-8.64-15.04-5.44-5.44-12.8-8-18.56-13.12-20.16-18.24-24-42.56-21.76-68.48 0.64-8.32 3.84-15.36 2.56-23.36-0.96-6.72-5.12-12.16-9.92-17.28-1.6-2.56-5.76-8.64-5.76-9.28-4.8-7.36-8.32-15.04-15.68-21.44-4.16-3.52-15.04-12.16-25.28-19.2 46.08-57.28 105.92-102.72 175.04-130.88 0.64 3.52 1.92 7.04 4.16 10.24 5.76 8.32 11.2 7.68 22.08 9.92-1.28 12.8-16.32 12.8-26.24 11.52-12.16-1.6-24.96-5.76-35.52 4.8 5.76 3.52 21.76 16.96 19.52 2.88 11.52-0.64 22.72-0.96 34.24 0.32 4.48 0.64 19.84 5.76 24 3.2 1.6-0.96 3.52-9.6 5.44-12.16-3.2 0-6.72-1.6-9.92-1.28 7.68-9.6 15.04-1.92 24.64 2.24-10.56 6.4-4.16 21.76 6.08 9.28 8.32-10.24-1.92-17.6-12.8-23.68 10.88-13.44 17.6-14.72 27.84 0.64 1.6-9.6 9.28-5.76 17.28-5.12v-1.28c-3.52 0-7.36-1.92-10.56-1.6 8-12.8 2.88-16 14.4-20.16 9.28-3.52 35.52-0.32 38.72-8.96-18.56 3.52-40.64 4.48-57.28 12.8-7.04 3.52-15.68 15.04-23.04 7.68-7.36-7.68 5.12-19.84 11.84-23.68h-1.6c29.12-6.08 59.52-9.6 90.24-9.6 20.16 0 39.68 1.6 58.88 4.16-6.72 3.52-1.6 5.76-6.72 9.6-9.28 6.72-25.92 12.48-36.8 16.96 14.08 0 48 13.12 54.72-6.4-4.48-0.64-8.96-1.28-13.76-2.24 8.32-5.76 17.92-10.24 27.84-13.44 89.6 17.6 169.28 63.04 229.76 127.04 0-0.32-0.32-0.32-0.64-0.32z m79.36 172.16c0.96-1.6 2.56-2.24 3.52-3.84 1.6-2.88 1.28-5.12 3.2-7.68 2.24-2.88 5.12-3.52 7.36-5.76a7.68 7.68 0 0 0 1.92-2.56c7.36 20.48 13.12 41.28 17.28 62.4 0 0-0.32 0.32-0.32 0.64-0.96 0.96-8 1.92-9.28 1.92-5.12 0.32-8.64-3.2-12.16-6.08-3.52-3.2-8-7.36-10.56-11.52-2.88-4.48-0.96-8.96-0.96-13.76 0-4.16-1.92-9.92 0-13.76z m5.44 224.64c-8.32-7.36-18.24-17.28-24.32-26.56-6.4-10.24-2.56-20.48-1.92-32 0.32-9.6-4.48-23.68-0.32-32.32 1.92-4.16 6.4-5.44 8-8.64 3.84-7.04 2.88-11.52 7.68-17.6 5.12-6.4 11.84-8 17.28-13.12 5.76-5.12 5.76-9.28 9.28-16.32 2.56-4.8 8.96-13.12 15.04-17.6a427.52 427.52 0 0 1-9.6 177.28c-8-1.6-14.72-7.36-21.12-13.12z" fill="#1ABC9A" p-id="20785"></path></svg>