<?xml version="1.0" standalone="no"?><!DOCTYPE svg PUBLIC "-//W3C//DTD SVG 1.1//EN" "http://www.w3.org/Graphics/SVG/1.1/DTD/svg11.dtd"><svg t="1747135970521" class="icon" viewBox="0 0 1024 1024" version="1.1" xmlns="http://www.w3.org/2000/svg" p-id="24205" xmlns:xlink="http://www.w3.org/1999/xlink" width="512" height="512"><path d="M229.87161 0.192l202.678 574.367v-0.288l16.035 45.221c89.1 252.092 136.974 387.243 137.23 387.531 0.16 0 13.665 0.864 29.955 1.7 49.317 2.144 110.508 7.681 156.849 13.217 10.657 1.28 19.874 1.7 20.482 1.28L592.11961 453.138l-18.594-52.486-103.4-292.288C450.50361 52.901 433.86161 5.601 432.99761 3.808L431.68461 0.001z m363.048 0.352l-0.416 226.425-0.352 226.425-18.658-52.582v-0.1l-24.1 503.959c23.683 66.855 36.356 102.539 36.484 102.7 0.16 0.16 13.665 1.024 29.955 1.792 49.381 2.144 110.508 7.681 157.041 13.217 10.657 1.28 19.938 1.7 20.482 1.28s0.864-231.289 0.736-512.472L793.74161 0.448zM229.87161 0.128v511.64c0 281.375 0.288 511.832 0.64 512.184s17.762-1.28 38.692-3.68c20.9-2.56 49.925-5.537 64.423-6.817 22.114-2.144 88.234-6.4 95.915-6.4 2.208 0 2.4-11.521 2.688-216.76l0.352-216.76 16.226 45.221 5.537 16.034 24.323-503.511-8.1-23.3L433.02961 3.872 431.74961 0.16z" fill="#E50914" p-id="24206"></path></svg>