<?xml version="1.0" standalone="no"?><!DOCTYPE svg PUBLIC "-//W3C//DTD SVG 1.1//EN" "http://www.w3.org/Graphics/SVG/1.1/DTD/svg11.dtd"><svg t="1747135246073" class="icon" viewBox="0 0 1024 1024" version="1.1" xmlns="http://www.w3.org/2000/svg" p-id="26191" xmlns:xlink="http://www.w3.org/1999/xlink" width="512" height="512"><path d="M496.128 690.602667l-87.338667-91.306667 289.749334-253.994667 51.626666 55.552z m377.045333 258.005333c91.306667-91.306667 150.826667-218.325333 150.826667-361.216 0-281.770667-230.186667-512-512-512s-512 230.229333-512 512c0 142.933333 55.552 269.909333 150.826667 361.216l71.424-71.466667c-75.392-75.392-119.04-174.634667-119.04-289.706666A408.234667 408.234667 0 0 1 512 178.56a408.234667 408.234667 0 0 1 408.789333 408.789333c0 111.146667-47.616 214.357333-119.04 289.749334z" fill="#141526" p-id="26192"></path></svg>