<?xml version="1.0" standalone="no"?><!DOCTYPE svg PUBLIC "-//W3C//DTD SVG 1.1//EN" "http://www.w3.org/Graphics/SVG/1.1/DTD/svg11.dtd"><svg t="1773284614452" class="icon" viewBox="0 0 1024 1024" version="1.1" xmlns="http://www.w3.org/2000/svg" p-id="5431" xmlns:xlink="http://www.w3.org/1999/xlink" width="200" height="200"><path d="M1023.161352 496.86332S1046.748412 0 500.697882 0C17.850192 0 2.746513 476.575409 2.746513 476.575409s-71.00319 547.424591 509.151872 547.424591c556.511-0.001 511.262967-527.13668 511.262967-527.13668zM347.962021 323.23152C450.361621 260.511703 581.305503 298.879426 630.329706 393.11766c9.312418 17.887804 10.500472 45.344037 4.608207 64.12788-20.351914 64.671905-68.320069 100.959535-134.176028 116.384229 19.423873-16.639747 34.847565-35.487594 39.807788-61.535765a88.568979 88.568979 0 0 0 1.888085-18.300822 89.675028 89.675028 0 0 0-17.567789-53.472402l0.160007 0.256012a91.436107 91.436107 0 0 0-105.823754-31.808429l0.640029-0.192009c-40.543821 15.35969-62.719817 52.384353-58.751639 97.887397 3.712167 42.239897 35.807609 69.632128 95.776302 80.031595-8.960403 4.736213-15.871713 8.224369-22.624016 12.00054a219.852876 219.852876 0 0 0-69.728132 60.447715l-0.416019 0.576026c-6.112275 8.192368-10.24046 8.864398-19.551878 3.200144-120.605418-73.760313-128.383767-258.847628 3.360151-339.455249z m-90.240054 455.775474c-19.423873 4.960223-38.175715 12.191548-57.983604 18.68784 9.700436-65.375937 86.239874-125.567641 151.006783-118.688332a165.472433 165.472433 0 0 0-31.552417 87.93595l-0.032002 0.448021c-21.500966 3.968178-41.823879 6.624298-61.43976 11.616521z m412.287521-638.206669c19.100858 0.736033 38.301721 0.416019 57.471582 0.864039a102.037584 102.037584 0 0 1 14.91167 2.112095l-0.672031-0.128006a137.268166 137.268166 0 0 1-14.586655 18.591835l0.064003-0.100004c-6.816306 6.400288-14.559654 12.639568-24.448098 2.944132-2.336105-2.336105-7.968358-1.792081-12.063542-1.888085-19.071857-0.22401-38.143713-0.864039-57.183569-0.128006a358.110087 358.110087 0 0 0-51.392309 5.34424l2.144097-0.320014c-3.072138 0.544024-7.584341 10.656479-6.240281 14.431648 3.32815 8.832397 8.160367 18.559834 15.327689 24.192087 26.401186 20.900939 54.495448 39.583778 81.055641 60.287708 25.760157 20.127904 49.792237 42.239897 64.415894 72.544259 19.039855 39.583778 19.615881 81.055641 11.391512 122.751514-13.727617 69.536124-48.928198 127.135711-105.95176 169.055595-22.944031 16.863758-51.42431 26.464189-77.69549 38.52773-23.168041 10.656479-46.944109 19.839891-70.144151 30.368365-41.823879 19.039855-65.279932 64.415894-58.402624 111.584012 6.368286 43.295945 44.383994 79.455569 87.839946 86.911904 52.192345 8.960403 106.079765-24.992123 118.815338-78.079507 14.335644-59.615678-18.047811-112.896072-78.719537-129.023796l-10.91249-2.813126c16.223729-7.264326 30.208357-12.415558 43.167939-19.551879q33.82752-18.655838 66.462986-39.455772c6.400288-4.100184 9.856443-4.100184 15.35969 0.608027 41.695873 36.095621 66.55999 80.991638 73.568305 135.968108 11.519517 91.104093-31.584419 174.75185-112.896072 217.631777C514.905521 1050.367184 360.917603 974.843792 333.146356 835.391527c-23.80807-119.459366 60.511718-227.840235 162.015278-248.736173 43.647961-8.992404 83.551753-27.16822 114.560146-60.802732 20.063901-21.663973 29.728335-40.28781 33.055485-48.672186a132.692961 132.692961 0 0 0 9.248415-49.152208v-0.288013a115.915207 115.915207 0 0 0-10.400467-43.039934l0.288013 0.700032c-10.591476-24.160085-51.2023-62.55981-61.21575-70.656174l-95.584294-74.848362c-3.360151-2.784125-7.168322-2.560115-15.35969-2.016091-9.824441 0.67203-34.783563 2.048092-45.536045-0.768035 8.700391-6.624298 32.416456-16.223729 42.655916-23.901073-30.976392-20.900939-66.302978-13.407602-98.783438-19.615881 7.520338-13.983628 44.640005-35.455593 65.759954-37.887702a309.520904 309.520904 0 0 0-6.176277-37.183671l0.416019 2.112095c-1.280058-4.736213-6.560295-9.376421-11.232505-12.063542-11.167502-6.560295-23.072036-12.000539-35.967616-18.527832a74.031326 74.031326 0 0 1 38.560732-11.932536h0.100005c1.664075-0.064003 3.616162-0.100004 5.56825-0.100005a145.025515 145.025515 0 0 1 34.175535 4.064183l-0.992044-0.192009c23.040035 5.248236 41.375859 1.792081 59.679681-13.823621-14.431648-5.79226-28.832295-11.100499-42.783922-17.37578a407.284296 407.284296 0 0 1-42.079891-22.079992l1.888085 1.056047c36.255629 5.024226 71.296203 18.655838 108.383869 13.663614l0.928042-5.024226-86.115869-20.059901c51.328306-4.700211 99.104452-5.472246 144.383486 16.543744 12.767574 6.24028 26.016169 11.35951 38.27172 18.431828 5.984269 3.424154 9.952447 10.24046 14.847666 15.5837 3.840173 4.192188 7.008315 9.824441 11.775529 12.383556 18.079812 9.600431 37.983706 9.984449 58.271618 9.500427l0.416019-6.816307c20.447919 6.400288 43.391949 29.952346 43.391949 47.136118-33.119488 0-66.143971-0.128006-99.204456 0.160007-3.55216 0-7.040316 2.592116-10.528473 4.00018 3.32815 1.952088 6.624298 5.472246 10.01645 5.600251z m-42.655916-48.928198a5.025226 5.025226 0 0 0-2.432109 4.288193 5.082228 5.082228 0 0 0 1.728077 3.808171 7.665344 7.665344 0 0 0 6.624298 3.840172 7.386332 7.386332 0 0 0 3.900175-1.088049l-0.032001 0.032002c3.200144-1.632073 6.300283-3.32815 10.143455-5.34424-3.072138-2.656119-5.536249-4.864219-8.100364-6.944312-4.512203-3.712167-8.224369-1.376062-11.871533 1.408063z" fill="#88171A" p-id="5432"></path></svg>